PathFileType	4	(X/Y/Z)	 s03c0103.trc
DataRate	CameraRate	NumFrames	NumMarkers	Units	OrigDataRate	OrigDataStartFrame	OrigNumFrames
200	200	5	50	mm	200	751	2000
Frame#	Time	racr			lacr			c7			jug			rlel			rdr			llel			ldr			s2			lic			ric			lasi			rasi			rpsi			lpsi			rgt			lgt			rth1			rth2			rth3			rth4			rlfc			rmfc			rsh1			rsh2			rsh3			rsh4			rlmal			rcal			rtoe			rmt5			rmt1			lth1			lth2			lth4			lth3			llfc			lmfc			lsh1			lsh2			lsh3			lsh4			llmal			lcal			ltoe			lmt1			lmt5			SBIKE			LBIKE			RBIKE			
		X1	Y1	Z1	X2	Y2	Z2	X3	Y3	Z3	X4	Y4	Z4	X5	Y5	Z5	X6	Y6	Z6	X7	Y7	Z7	X8	Y8	Z8	X9	Y9	Z9	X10	Y10	Z10	X11	Y11	Z11	X12	Y12	Z12	X13	Y13	Z13	X14	Y14	Z14	X15	Y15	Z15	X16	Y16	Z16	X17	Y17	Z17	X18	Y18	Z18	X19	Y19	Z19	X20	Y20	Z20	X21	Y21	Z21	X22	Y22	Z22	X23	Y23	Z23	X24	Y24	Z24	X25	Y25	Z25	X26	Y26	Z26	X27	Y27	Z27	X28	Y28	Z28	X29	Y29	Z29	X30	Y30	Z30	X31	Y31	Z31	X32	Y32	Z32	X33	Y33	Z33	X34	Y34	Z34	X35	Y35	Z35	X36	Y36	Z36	X37	Y37	Z37	X38	Y38	Z38	X39	Y39	Z39	X40	Y40	Z40	X41	Y41	Z41	X42	Y42	Z42	X43	Y43	Z43	X44	Y44	Z44	X45	Y45	Z45	X46	Y46	Z46	X47	Y47	Z47	X48	Y48	Z48	X49	Y49	Z49	X50	Y50	Z50	
751	3.7550	496.147164	1406.009360	-120.293681	427.183521	1426.666123	-410.927542	395.225038	1503.542836	-251.772067	402.967199	1330.491565	-267.640054	549.934858	1152.801120	-8.963117	753.219597	938.416595	-41.732957	519.560896	1174.939148	-461.998670	744.060722	958.902230	-414.423119	-113.636080	1216.252793	-164.060329	22.887320	1273.325323	-366.787660	81.089518	1241.048584	-4.799216	58.579234	1204.377560	-333.909765	102.274611	1175.438597	-55.881095	-77.089116	1262.841600	-118.152129	-88.416016	1272.976480	-197.373929	14.832615	1115.715635	4.314565	-11.721291	1193.654041	-388.601113	96.920859	973.320971	15.691492	167.774507	918.883514	13.466831	203.008562	841.146511	2.406073	195.639870	941.256276	2.461914	260.756341	729.537063	-33.534209	262.345051	718.592079	-153.082157	204.866142	572.321964	-10.592481	200.027124	484.620692	-28.387725	152.170294	410.568671	-32.337466	228.874292	478.932056	-53.156687	101.989995	290.611090	-59.360245	33.898621	273.850305	-96.482455	315.909629	143.293769	-111.036600	201.055841	171.782717	-37.107258	230.799129	183.621034	-149.612231	105.948074	1126.921766	-438.194009	189.654659	1118.703279	-458.887451	205.652209	1150.511885	-447.120281	259.847478	1065.630541	-475.833339	393.318185	1021.545222	-484.050652	419.712028	1007.376649	-353.026309	319.808884	862.915060	-485.076988	306.034462	782.417839	-458.907567	248.808086	713.972468	-444.309623	337.045519	773.050884	-438.864004	191.700323	603.921764	-413.674392	122.704142	570.431422	-361.927921	424.342385	505.156909	-352.216472	330.497400	519.918700	-312.265782	305.258675	502.662070	-427.381967	-214.339775	946.095682	-228.105542	-5.903668	84.791622	-434.876701	-11.203619	81.008578	-34.569809	
752	3.7600	496.185233	1404.575295	-120.586021	425.996527	1426.445411	-410.986231	395.055249	1502.677824	-251.614255	402.238539	1329.629550	-267.861127	548.955266	1151.389675	-8.465965	753.004944	938.003677	-41.399238	517.543629	1174.635915	-463.068938	742.731302	959.193180	-414.232397	-114.339331	1216.630331	-164.234411	21.222347	1274.419626	-366.084943	80.850140	1240.158725	-4.210021	57.440666	1204.387622	-332.982294	101.841909	1174.886336	-55.834053	-77.486848	1262.553309	-117.153341	-88.755144	1272.727660	-196.290484	15.210465	1115.391638	4.657204	-12.485810	1192.785337	-388.486394	98.546155	974.224075	15.808768	170.159207	920.938194	13.579200	206.450847	843.613108	2.976002	197.615474	943.573768	2.426135	265.035442	732.034027	-32.318827	266.630188	721.099862	-151.931972	205.604983	575.977238	-9.658548	198.486613	488.506668	-27.669791	148.798864	415.645716	-31.701942	227.187040	482.130224	-52.517004	95.630046	296.973506	-59.145889	27.224413	281.222944	-96.613504	306.483063	144.948688	-110.880069	192.349243	175.893876	-36.994753	222.180467	186.949251	-149.812043	106.313324	1124.761112	-437.119132	190.194466	1115.848288	-456.236293	206.096897	1147.842733	-445.612565	260.220162	1062.616875	-473.239283	393.894158	1018.428309	-480.849382	419.068969	1004.383109	-349.220164	322.170433	858.569042	-482.580625	309.318501	777.651182	-457.113676	252.864967	708.450745	-443.292347	340.364558	768.478684	-436.989471	197.403607	596.666318	-413.453892	129.189905	560.847767	-362.224836	432.574299	504.698341	-351.767769	338.021786	516.804110	-311.806127	313.915668	498.154950	-426.414259	-214.376400	946.110977	-227.953619	-5.937847	84.826346	-434.827157	-11.498031	81.313729	-34.442408	
753	3.7650	496.169784	1403.094394	-120.892339	424.905209	1426.025185	-411.065061	394.829669	1501.730358	-251.480906	401.508662	1328.689397	-268.102546	548.447251	1150.338645	-7.814122	752.814660	937.626066	-41.020440	515.516104	1174.042101	-464.041371	741.475552	959.482189	-414.502383	-114.920762	1215.558389	-163.391869	19.655536	1275.094289	-365.500346	80.752512	1239.247433	-3.847921	56.443695	1204.187486	-332.300317	101.407842	1174.297504	-55.841116	-77.987199	1262.122595	-116.341530	-88.989668	1272.211969	-195.415840	15.544159	1115.070195	4.961391	-13.310745	1191.878970	-387.754754	100.125234	975.253443	15.874688	172.519021	922.986556	13.716758	209.975405	846.121970	3.579644	199.603072	945.910297	2.331888	269.516372	734.728221	-31.045692	271.361656	723.578826	-150.780416	206.549774	579.835356	-8.823641	197.551558	492.911602	-26.810030	145.600637	421.097516	-31.219331	226.251557	485.897369	-51.481829	89.583904	303.710031	-59.078962	20.896517	289.141892	-96.903967	297.281331	147.025667	-110.774288	183.834023	180.435174	-37.018640	213.973604	190.489702	-149.897413	106.717101	1122.356931	-436.401422	190.682739	1112.699728	-454.648735	206.250242	1144.069709	-442.536273	260.477455	1058.906804	-470.792399	394.329438	1014.068800	-477.369212	418.279399	1000.193581	-345.701188	324.119112	853.345869	-480.075681	312.220811	772.011213	-455.387512	256.585500	702.021132	-442.287911	343.362307	763.019771	-435.245970	202.952391	588.716931	-413.310624	135.183567	550.626524	-362.363522	440.378429	503.812042	-351.600857	345.497307	513.006653	-311.889376	321.984807	493.580672	-426.452530	-214.396958	946.127564	-227.770714	-5.971561	84.855736	-434.793334	-11.238593	80.981676	-34.492052	
754	3.7700	496.160390	1401.889634	-121.269224	423.854016	1425.371323	-411.212320	394.533163	1500.731451	-251.457731	400.924531	1327.688524	-268.255418	547.778733	1149.535857	-7.511064	752.628216	937.352921	-40.511979	513.420041	1173.319304	-464.971251	740.335590	959.578516	-414.533528	-114.627567	1214.638589	-162.089317	18.327267	1275.468566	-365.006780	80.441647	1238.303534	-3.550984	55.510132	1203.647775	-331.457847	100.899269	1173.626401	-55.798961	-78.673506	1261.524415	-115.648700	-89.217387	1271.557808	-194.659286	15.804585	1114.651634	5.250018	-13.674135	1190.555322	-387.546398	101.682250	976.316213	15.902059	174.884041	925.038469	13.793356	213.893404	848.592108	4.189554	201.595480	948.374537	2.325636	274.033799	737.650584	-29.735522	277.378495	726.290534	-149.703529	207.701591	583.867956	-8.072177	196.448288	497.297476	-26.374019	142.770579	426.836052	-30.903532	224.971746	489.691843	-50.996190	83.907003	310.939150	-59.345906	14.722965	297.831361	-96.936720	288.329844	149.484477	-110.716809	175.659086	185.558377	-37.079791	205.970835	194.682391	-150.063085	107.196699	1119.240980	-435.176375	191.198907	1108.901061	-453.147664	206.882978	1140.324368	-441.381668	260.688219	1054.491472	-468.421879	394.536287	1008.702822	-474.023099	417.372234	994.899534	-342.425591	325.735525	847.204656	-477.701440	314.918999	765.441882	-453.796957	260.083000	694.717092	-441.273767	346.095901	756.697372	-433.638295	208.356313	579.866222	-413.216994	141.215746	539.543011	-362.615948	447.745089	502.366940	-351.667019	352.586888	508.561061	-311.893855	329.708966	488.272756	-426.657697	-214.396772	946.144092	-227.599902	-5.987041	84.884713	-434.732782	-11.250892	80.983510	-34.454358	
755	3.7750	496.219473	1400.883353	-121.644431	422.713312	1424.575228	-411.169634	394.173449	1499.622269	-251.459209	400.485417	1326.566587	-268.239196	547.462611	1148.928699	-7.210173	752.483379	937.229340	-39.985620	512.064054	1172.491751	-464.928707	739.245842	959.592186	-414.555175	-114.865523	1213.719137	-161.947493	17.280937	1275.428153	-364.745879	80.141280	1237.264848	-3.439902	54.960832	1202.984417	-331.285620	100.361848	1173.006934	-55.753395	-79.320020	1260.786685	-115.166978	-89.444004	1270.681042	-194.163644	15.943096	1114.125351	5.417045	-13.818741	1189.018354	-387.341328	103.325447	977.073255	15.751179	177.180666	927.133243	13.882067	217.380376	851.300386	4.699430	203.561323	950.775734	2.360139	278.542199	740.687580	-28.398193	282.618990	729.121530	-148.433166	208.957969	588.080382	-7.402180	195.881001	501.839915	-25.665878	140.184268	432.808230	-30.766609	223.920040	493.675890	-50.557274	78.500499	318.647898	-59.177197	9.198286	306.670193	-97.378943	279.602784	152.551991	-110.620582	167.743419	191.125117	-37.201895	198.197908	199.259812	-150.392107	107.682206	1115.980553	-434.722956	191.712995	1104.529030	-451.787977	207.619940	1135.921030	-440.251505	260.705150	1049.326003	-466.200481	394.441378	1002.395393	-470.835660	416.320581	988.638136	-339.377315	327.068050	840.072055	-475.408656	317.267061	758.008525	-452.364575	263.305729	686.487406	-440.366366	348.571569	749.380551	-432.178803	213.507778	570.192821	-413.058322	147.035033	527.796468	-362.938350	454.671698	500.202416	-351.665012	359.336855	503.417262	-312.053667	336.850497	482.803903	-427.769890	-214.459726	946.200838	-227.526327	-6.026373	84.911927	-434.689396	-11.257667	80.971735	-34.423822	
